<svg version="1.1" id="Layer_1" xmlns="http://www.w3.org/2000/svg" xmlns:xlink="http://www.w3.org/1999/xlink" x="0px" y="0px"
	 width="100%" viewBox="0 0 68 68" enable-background="new 0 0 68 68" xml:space="preserve">
<path fill="#040404" opacity="1.000000" stroke="none" 
	d="
M42.000004,69.000000 
	C28.000000,69.000000 14.500000,69.000000 1.000000,69.000000 
	C1.000000,46.333332 1.000000,23.666666 1.000000,1.000000 
	C23.666666,1.000000 46.333332,1.000000 69.000000,1.000000 
	C69.000000,23.666666 69.000000,46.333332 69.000000,69.000000 
	C60.166668,69.000000 51.333340,69.000000 42.000004,69.000000 
M21.874662,55.066151 
	C24.938744,55.743752 28.002825,56.421356 31.519123,57.198959 
	C31.519123,44.742645 31.519123,33.545490 31.519123,22.131855 
	C26.522141,22.131855 21.702284,22.131855 16.882429,22.131855 
	C22.372925,25.226849 21.967514,30.211739 21.838278,35.235222 
	C21.676245,41.533531 21.803774,47.839291 21.874662,55.066151 
M49.742203,21.828789 
	C45.798435,21.828789 41.854668,21.828789 37.986446,21.828789 
	C37.986446,33.652065 37.986446,44.986927 37.986446,56.180771 
	C41.165260,56.180771 43.878773,56.180771 46.826069,56.180771 
	C46.826069,48.621197 47.001747,41.481884 46.762314,34.356529 
	C46.610825,29.848248 46.660393,25.712044 51.479210,23.490269 
	C51.171467,22.938662 50.863720,22.387054 49.742203,21.828789 
M50.403130,18.146471 
	C52.493988,18.146471 54.584843,18.146471 56.560440,18.146471 
	C56.560440,15.192210 56.560440,12.960296 56.560440,10.608843 
	C41.507996,10.608843 26.801142,10.608843 11.950208,10.608843 
	C11.950208,13.178396 11.950208,15.441884 11.950208,18.146473 
	C24.570421,18.146473 36.996441,18.146473 50.403130,18.146471 
z"/>
<path fill="#F0F0F0" opacity="1.000000" stroke="none" 
	d="
M21.840496,54.603992 
	C21.803774,47.839291 21.676245,41.533531 21.838278,35.235222 
	C21.967514,30.211739 22.372925,25.226849 16.882429,22.131855 
	C21.702284,22.131855 26.522141,22.131855 31.519123,22.131855 
	C31.519123,33.545490 31.519123,44.742645 31.519123,57.198959 
	C28.002825,56.421356 24.938744,55.743752 21.840496,54.603992 
z"/>
<path fill="#F1F1F1" opacity="1.000000" stroke="none" 
	d="
M50.149086,21.832119 
	C50.863720,22.387054 51.171467,22.938662 51.479210,23.490269 
	C46.660393,25.712044 46.610825,29.848248 46.762314,34.356529 
	C47.001747,41.481884 46.826069,48.621197 46.826069,56.180771 
	C43.878773,56.180771 41.165260,56.180771 37.986446,56.180771 
	C37.986446,44.986927 37.986446,33.652065 37.986446,21.828789 
	C41.854668,21.828789 45.798435,21.828789 50.149086,21.832119 
z"/>
<path fill="#EFEFEF" opacity="1.000000" stroke="none" 
	d="
M49.912796,18.146473 
	C36.996441,18.146473 24.570421,18.146473 11.950208,18.146473 
	C11.950208,15.441884 11.950208,13.178396 11.950208,10.608843 
	C26.801142,10.608843 41.507996,10.608843 56.560440,10.608843 
	C56.560440,12.960296 56.560440,15.192210 56.560440,18.146471 
	C54.584843,18.146471 52.493988,18.146471 49.912796,18.146473 
z"/>
</svg>